<mxfile host="Electron" agent="Mozilla/5.0 (Windows NT 10.0; Win64; x64) AppleWebKit/537.36 (KHTML, like Gecko) draw.io/24.7.8 Chrome/128.0.6613.36 Electron/32.0.1 Safari/537.36" version="24.7.8">
  <diagram name="Page-1" id="g2zT7FeewelC-n8Tju7q">
    <mxGraphModel dx="1232" dy="1187" grid="1" gridSize="10" guides="1" tooltips="1" connect="1" arrows="1" fold="1" page="1" pageScale="1" pageWidth="850" pageHeight="1100" math="0" shadow="0">
      <root>
        <mxCell id="0" />
        <mxCell id="1" parent="0" />
        <mxCell id="A5xHWLvRs9yvmZeDrDCQ-3" style="edgeStyle=orthogonalEdgeStyle;rounded=0;orthogonalLoop=1;jettySize=auto;html=1;entryX=0;entryY=0.5;entryDx=0;entryDy=0;" edge="1" parent="1" source="A5xHWLvRs9yvmZeDrDCQ-1" target="A5xHWLvRs9yvmZeDrDCQ-2">
          <mxGeometry relative="1" as="geometry" />
        </mxCell>
        <mxCell id="A5xHWLvRs9yvmZeDrDCQ-1" value="Teacher" style="rounded=0;whiteSpace=wrap;html=1;fillColor=#d5e8d4;strokeColor=#82b366;" vertex="1" parent="1">
          <mxGeometry x="190" y="360" width="120" height="60" as="geometry" />
        </mxCell>
        <mxCell id="A5xHWLvRs9yvmZeDrDCQ-2" value="TeacherDetail" style="rounded=0;whiteSpace=wrap;html=1;fillColor=#f8cecc;strokeColor=#b85450;" vertex="1" parent="1">
          <mxGeometry x="490" y="360" width="120" height="60" as="geometry" />
        </mxCell>
        <mxCell id="A5xHWLvRs9yvmZeDrDCQ-4" value="" style="shape=image;verticalLabelPosition=bottom;labelBackgroundColor=default;verticalAlign=top;aspect=fixed;imageAspect=0;image=data:image/png,iVBORw0KGgoAAAANSUhEUgAAAagAAADBCAYAAACaPiTmAAAAAXNSR0IArs4c6QAAAARnQU1BAACxjwv8YQUAAAAJcEhZcwAADsMAAA7DAcdvqGQAAD31SURBVHhe7Z17cBzXdeY/vEgAJEHwDb5EUQPJI8uJLFqqFWlpZS8JrHchQZarYjt2vLWJy4CTZZIqeAX+4fLKita7S9jiJhWWE0CxvdHGseyqXZuguOUApBRZCpXYFvWwRI9JDCFKfAgUCeJFAAPMYPac27d7ume6Z3oeAGfA82M1MX379nPuvd85997pg3gaxsbG9Kf0FHu+8+fP60/pWSz3W+h88vzc8ZtPnp87fvPJ83PHb75Sfn7lEARBEIQiRARKEARBKEpEoARBEISipIz7//TnRcv4+DhWrFih14RskeeXH/L88kOeX36U9PPTY1GuFOOgmR2/+WSQ1R2/+eT5ueM3nzw/d/zmk+fnjt98MklCEARBEAqMCJQgCIJQlIhACYIgCEWJCJQgCIJQlIhACYIgCEVJGc+U0J9T8JqeODQ0hCNHjqB2eR2qly5FZUWZ3iIITqKxOKYi05iksvTQQw9i/fr1vqe9LpZ8Fy5cwKZNm/SaN4vlfgudT56fO37zlfLzy1qgnn76f6Nu5UrMLqnDZBX9rahBrIwdMREpIZk4KuJzqIpNoXZ2FJUzYxgfHcUjj3yy6CqCnULnkwbWHb/55Pm54zdfKT+/rLr4/uY730Xd6jUYXnELhms2Y7pyOYlTBW0RcRLcKFPlg8sJl5erK7ajbtUa/OCZZ/R2QRAEb3y/SeJHP/oRVq9vwOXlAcwpURKE7CmPR7FuYhBXLl3Epz/9aZ26uPFrSQruyPPLj1J+fr66+HjM6eV//hflOc2WL9VbBSE3lsxNY9X4IHbtvFeNSXnht2IVez7ponLHbz55fu74zbfou/h4QgSPObmJ03f+y2xWy4+/XYb3z59FZGpSH0G40Zgpr6bytAKHDx/WKYIgCKn4EiierccTIty47cP1CO6ox+0fWWUsO/RiftZ/P3BXvcp7c3AF3vrFSxgbfl8fQbgRmVpSj2Ur6vSaIAhCKr4EqnrpEsxWVOs1J5/+8no8/eeb8Lf/cyO+d2Aj/ubJjej51kb81f4GHPwfDfjz/9aAb/3XBnQ90YBvfL0B9/67ZcqDmhYP6oYmQl4U/0RBEATBC18CVVlRrmfrpVIWj2N8Moq33h7DG2dGEXp3HENXp/Grt0fx+pkRvDccwa8GR/DawAhmZucQm43qPa8vv+6+DV/++G34v7/UCULWTI9dwdCvf5524Txu8EQbLleCIAheZNFCuE8lnyOBitEyTeIzOR3FVCSGyCz/OHMO12iJUDr/nZyawfjUFGZnZvSeXvwT/i8Jx5c//k38WqcIxcnSZStx6dSrOP/az1yXS785gapar248+WmCIAjpyduEnYvFEJsDZqMkRtE4eUlRzMTiSqQiM1GVFpmZo/QZTEeiiEVn9Z5CqVNWUYlNv/VRvZbKpjvvR0VllV4TBEHIjrwFKkbqFJsjL4pEihfSKURj/Deu/s6qz7Z0/s+Td/DiV38fferzU/gLuyd14Yf4tlrXS/c/qVwp6bR8+9l3jG0KPmaa7a98M7Htqz9EYupG8n4Jjy7RPai9PfNabkDWbL8Dtas36LUEtavWY83NH9RrgiAI2ZO/BxUlr4jFKW4IFIvVbNwQJ0OY7J+N/N7chPu/8T00q89fwp8+fwp//fyjuJ1F6PNfwxuf/R6tn8ITX9kNPPP7CaHR6X/9/FF8fhfwxpN79NgSi8wefP/4bnz++7ydlm9+Se1i0oddKv1PP0srx7+GFx376Wv4/hP4bRZMh4DRvo+aYnoDU1aGzXd9TK8kUGm0TRAEIVd8vUnihRdewPnlH9BrTlYuXY1dt67A6fMTmIrMopIkr37lcrz7/hRmZ2exdvUyXFCfp3FTwwr86vRl/PSH/x33/ttHsLXxdn0UO+yVcMPP4kDiRCnvP/uH+NqTx9D8zVP41N2UYArWrifwxDc+g3VqPwMz729/5Sj+aMfLnvnYC/qLZ2Ad03U/Fr527sKyC91fYe1h574CcObFn2Dk3ID6XL/1Vtxy38Pqczo2T/wGDzzwgF5bvPj9waLgjjy//Cjl5+frTRLPPvusp0AtK1+JncF6/PrsCGamp1FeXoaVdbW4cHkas9FZrFpZq2b1xUistm6qx1unLqH//3RlJVCmmKSghQdaXOwooWn4Ib786FOGh6WEJkFagTL3S0EEyovIxAhOHvkefYrj9n//+6hescrYkAYWqAcffFCvpeK3YhV7PnkTgjt+88nzc8dvvkX/Jol08JgSL0srYqiqmENFOa3PzpAnxetx/XkOlVXlqgswHks3BpUeFgSjK08vJE6XSWhMYeE01f1XKKyuQ3P5K9yf+Xu+IVm6vB7rbv0w1t22w5c4CYIgZCJ/gSLPqIrEp2HtclrqsHbVCtTUVGP92hVYv2YFapfV0Oc6WlairGIJ4nOkUlly+0M8BgT0/dg2BsTdfLYxoYaGm9Tfy+dtntTdn1FjUnjm7/DiBSMJv/xm0iQKF9z2U918f2hbF5Jp+NBONNxxr14TBEHIj7wF6vLwFP7f8Xfx3C8v4KXXh/DyG0P4l9cv4pU3LuDVty7ijbfO4803z+PkyXN4681BTE1G9J5efBSfUhMZbLP4Nn0Gf8QTFY5/DV8zZ9XxGBHlur3dmFTR96iR/vw7dg+KJ13wxIlj+P7n9X6uXXfJuOz3cR6D0psFVyqXVKtFEAShEOQ9BsWvLeJ36/Ffv6zbvA133HOf+ivcuMgYlJPFcr+FzifPzx2/+W7oMai61euU2PCkB78L5+f9BEEQBMGLvAVqaU2t8oR4Rp7fhfPzfoIgCILgRd5dfIKQK9LF56QU75eDmXK8OA7Jw2+nr6yQH2ff6ERj/C7WaYxdvYpHHvlk2qCkTLryJwIlXDdEoJyU2v0+/fT/Rt3KleBgphwvbraiBrEy7pQRkbpxiaMiPoeq2BRqZ0dROTOG8dFR/If/8AW9PZV05S/vN0kIQq7ImyRKl7//wQ+wYdMWDNfe5BppWxCYqrlprL72Li69dx6/+1l+n1x2+PagBGE+EA8qQanc79NPP40Vq9bg8vKAiuslCOkoj0exbmIQ4yNX8IUvpHpS6cqfL4F6/PHH8dhjj+lUQSgMmcrVfDWwmSh0vsUkUJOTk3j5n/8FwytuEc9J8M0S8qRWjQ9i1857U8ak0pW/vGfxCYJw48ATInjMyU2cvvNfZrNafvztMvX7ycjUpD6CsFiZKa+mcrMChw8f1in+EIESBME3PFuPJ0S4cduH6xHcUY/bP7LKWHboxfys/37grnqV9+bgCvUj/7FhexAbYbEytaQey1Z4Rdh2RwRKEATfVC9dgtkK99dZffrL6/H0n2/C3/7PjfjegY34myc3oudbG/FX+xtw8H804M//WwO+9V8b0PVEA77x9Qbc+++WKQ9qWjyoG4IIeVH8U4RsKIhAzYz0Yfbqs5ibk3DugrCYqawoR8xjYkRZPI7xySjeensMb5wZRejdcRVq51dvj+L1MyN4bziCXw2O4LWBEczMziE2my546cLBoXeMCNk6YUExI3cvwIuof6mjh+cRAXx67AqGfv3ztAvncYMn1HD5yYa8BWrmyv/C3NXvIjb6XcxefBJT166QUGX/xnJBEEoF9985zZFAxWiZJvGZnI5iKhJDZJZ/tDmHa7REKJ3/Tk7NYHxqCrMzM3pPLzg2HDfe38SvdcqNTZbPwxSkAj6/pctW4tKpV3H+tZ+5Lpd+cwJVtV7deNn/Pi4vgYpOvIL41LOoqLiIiso4yi53Y+zCDzBFhc83/ftQ9nAPwnpVEITSZC4WUzHfZqMkRtE4eUlRzMTiSqQiM1GVFpmZo/QZTEeiiEWlx2VeuftRHcfOCPxaCMoqKrHpt5zBX+1suvN+0oIqvZY/eQlU7NobqKhdjvIllSiLzaCS/l177ycYGxtL9aKyFKJwz8MoKytTy8M9vFcYPQ/z+j70G1msY/bZ8joWET5BWDBipE6xOfKiqOrzQjqFaIz/xtXfWfXZls7/ecJdXxxZm7GF3uFVjgWn1vVidlklp9PijP1mdqd5bH/F9DhoscWaS90v4ZEkuge1d+Or+8z0hHhxCeNjeT7GYlyjx/NId8/mNse95M+a7XegdvUGvZagdtV6rLn5g3qtMJSdP38+45sknnrqKdffq7BAzVzZhyUVE8DoZcxcG8cvhz6JrR/6z9i6dSt5Vj5+xMciczCAgUNtCOgkExapxvBexPc38RoJVCOOoBVoOYBDbZQ7ZV8jT3hvHGoXoajh30F96Usc+0soFU6cOOH5VplVtetx/601OH1+QnXrVVbEsXJlLc5fmiIvKob1a5bhHH2enZ3CtoYVeH3gKo58/wkV4YBfIp0KN+TcKH8Jf2p6Adzociw4jnbd/lG8/+wfWhG1/2jHy/j24S34I0o3GnSj8edI3J+621zfjc9/X0fG5uCl730GHz+/B3/xDK3rY7Lo8LpzP30N5vl3PYEndERvta+JPoY3ydeRtH6BxOnRp4z7efCmpGvxeB5e97zJea3rWPg4Hl7Ga8zM+KV3cfrYD/Wawa3/5tNYscEIHOsFvz1mx44dei0z5fwDQq+FfzzFf72oWPbbmJm5GYiThTQxinMj6zBZ2YTq6mrlwThweFCmN0RLc5dK8Utw714E23sSXpRQ0iSXOftilr9MS7Hny3Sf5lIK95uOuVhUeUnGElNdfdEoMMPeErlUM7xOf/llorO0xHhjlrx/4h9VoNLmjxgN7LodH1PRtt94+WW8z4FNrYb3JgR3GsFL33uPPIoLL+NX7Kns+hiCZpN296NKBEzMY67d7LLfZ3cZgrBpJ36Lo20f/0eEbJMaWBBUd1qmhv+XP1QCgs/+niGSSfz6FQ6ouhu/tcO4rts/Yhhwfa94eGbp7nkeWbF+K+q3NOo1oH7rrRnFycStXCWnmUvekyQqaj7CHZOIzETw7vQj2LK1EXV1dSgv9z50uKcD7cE+0rU44n2dOtUvTWjrDuGoKJQgFBVRUqbZOWBqJoqZSATTkRlMTU+rzzPUPkxN0efZCOVjIWOBStfF587l88fUXzOCthlZ24Q9KrOriz0riwvvGPlu2oKsItGZ+z3z+/q4hocyP7yDy0pXsosA7nnP88zmuz6GsvIKWsqx6c5/rVMLS94CVVlZqSdnUMlctku9xoI9KG/COHakF517cu+DC+xuQeigjC8JQjHBY0q8LK2IoapiDhXltD47g0r6W1UR15/nUFlVrsao4uRl5YrlsZiL7m4zu/s47YmvGN5EQeBuMfv5ntfdhPMCd/fZz0WLh2fGXYDzds8ZWLq8Hutu/TDW3bYD1StW6dTCkrdAmZQhqoRpyZIlab2nghBow95gO3qO6nVBEK470dlZVJH4NKxdTksd1q5agZqaaqxfuwLr16xA7bIa+lxHy0qUVSxBPIefo9z+0BOqS6/vx7aBfx6HsU0EaGgwuppMb0tx92fwee6ae+bvEr834jEoxyQKF9z2U2M9Of5u6e5daOa/zxzXEy3exfuWR3YT7n+Eu/TIgzps69LjsaMMky9c73kBaPjQTjTcca9eKzz5e1DLPozZ6XFMlW2iwrnUhzgFsD0IdOk+uvBgSP3Nlqa2boS6shu/EgRh/rg8PIX/d/xdPPfLC3jp9SG8/MYQ/uX1i3jljQt49a2LeOOt83jzzfM4efIc3npzEFOTEb2nFx/Fp77JDbZt1hqPuXyfROr41/A13a1ldvPd3v491fib3X/Pv2P3Jqjx/8ZREpvsus9c98urmy/5nv4O77EAmvDUcN5udSnarzP1eSDtPc8/lUuq1TJfFORt5uPnvoUrwxWYrXkQW7ZsIaupRm+x4Zhx1499Zc1geWltbUUvWlJm8akZfO296nNr9wBoc8oMvf59ZWgOdcssvhJF3mbupBTuN11sOH5tEb9bj//6Zd3mbbjjnvvUX2Hx4xakNF35K4hARSIR9Rr+qqoqJU6+ppcLNzwiUE5K4X7TCRS/lZxf/JrNu/Wqa2pRt3odltLfRYE5lduLAkzxLmWui0AJQi6IQDkphfuV6NpCPmQrUPM8m0EQBEEQcqNsbGws45skDhw4IB6UUHDYg+ro6NBrixe/HkopIB6UkA/sQT3wwAN6LTPSxSdcN6SLz0kp3K8IlJAPMgYllAwiUE5K4X5ZoAQhH7IRKH7dkCfc/cd8/etfV38FoZBkKldm+ctEsefjFzL7oRTuV9oCIR/cyk+68ieTJARBEISiRARKEARBKEpEoARBEISiRARKEISCMTPSh9mrz2JuTsK5C/kjAiUIQkGYufK/MHf1u4iNfhezF5/E1LUrJFTZv7FcEExEoARByJvoxCuITz2LioqLqKiMo+xyN8Yu/ABTU1M6hw8cUbcFgQSK56B7LYz5Nx3XIhG8dPo0JqanxWISsiK5zNmXTNvNRfK5L/ORz4vYtTdQUbsc5UsqURabQSX9u/beTzA2NpbaJmQpRBzZoKysTC0P9/BeHLWA1/fBCqytj9lny+tYRPiKBrdylZxmLnn/Dmpsair+3G9+E/8HWo68+WZ86MqVeDQa1VsXir54J1rj3QN6dVHB94Z4ayFvrq8zDnTSka8v8jsoJ6Vwv17fWXTi9fjk2U/Eo+fui0ffCsYnf745/rPD/yk+ODjovz3gctnaHXcr6QPdrXF0miV2IN7dSnWitTVRL1L2NfJYuwhFwYL+DmqcPKZfnD2LpUuX4r7GRhVN9/kzZ/D+yAhieYRz9ouyrPZZNlQKrtuTrDeOKeWwxAgjLbEYVlsCu0VnbXexCvk4jn3DPXg4+Xg6LXG85GtpRkjFwwqk5E0ch+Nr2Y9RBuO2PdKb9iPeBzSneXaCkA0Vy34bMzM3s8WL6MQozo2sw2Rlk4qyzeXOgaOumN4QLc3ZBSAN7t2LYHuPo74Ii4ucBcoUpxoqgPds24ba8nLcHwigtq4O/YODCyJSgbZDiKeJTBjY3YLWrqPOBv9oF1pbdusAh/042tWJzs4u6AC/FhwkkQQcZLoB7R0wtcAIpBgEGWbGdmrpg0eO+eo+CB87Qo4L+UMp+Tut4/XRtVjCQYJ0kK5vL4sTcyaMYJ8+b9J10RWDjEl9TfaAjR7pTW3oDh207S8I+VFR8xGgrAKRmQjenX4EW7Y2oo7ag3RRtsM9HWgP9hnls4/qRlY0oa07lFJ3hcVDzgL14unTqCDP6W4SpyqdtpQK4h7ypCarqvBCOKyCGDpgy8m05k0LSllT+7BPW1HsFVgejJuVxYtuwDN5UKRQaGm1iw8LUitadusGv/8oujr3YP+eTisEfQrqGL0In+GVMI4d6UVn336qGiZN2J8UDdgd3hdoaWtDC47gmIcwNNG1IDRo3DcJUi9dn3Uu8nwsgQlsR1B/zI0ASL9JK0WhhMJQWVlJAsWf5oBlu7B+/XrlQXmj69OeRG3KFjZCQwedPRfC4iFngeIdI9FoygAoe1blkQgmhocxMTGhU5l+7GuG9hQG0I129Jia0BtC4IBhQfW2N+LonuQ8AbQdMjwA9hxau/xa/twIt1J7rzMrQdoL0yFhb0pVjlsCKZ6WRfgYjvR2QtUh9bkVgVuMTSn0tqPRFFFaHD0WvC9J027yMrcHez2Fwe7hhQdDaPU6Gd9LKx9Pr6MX7Y1OATfwSmeNC6LXUF5BKBhliCph4i7/dN5TQQi0YW+Q2omjel1YVORcej5KDe3U+DieI09pSovUJfKY/uHkSUQuXMAd9fXOwskNKv1rVo13I9p72VHQjbTZ0LJQQItBEta4T2M7Nbn+YQvL7FKzBElheFOq/U/xtFhrGvX5wtgbt3tMaWjtxoDuSuPF3mPB3Xu9we1KeNhL6nV085nPpQwHA3q8iTgT7kVwu6VACXgsqjmE7gOm50ZenHXePnR2NesxKK90QSg8lcs+jNnpcUyVbUJV1VIf4sTGGpV+XfHYIMuFprZuhLqyG78SSoOcBWoZWUg7t23D6OgofkoidZa8pT4Sp5Fz53DnmjVoaGhIfYV6UgNuNsQZ6d9nG/ehhlYn+4LFR3WpGeNNCX1iwTS9C0Mw7d18xhgUeXF24VLdamZ3XzYYXRkggVCix65Vr72bT49BsQdpE65bAjbvz4I80UbyxQYOWZ6gk1tAu7ns55UuCIWhcjkJ1JLPYXLFl1FPBqrq8stA037DcOJ60XFEJyZhjPsa9ccxwciEvahsh6+EkiBngWLraM3KlfjY9u0YJ5F6/tQpXBsawl1r12Lr1q2q/7mmpkbnJtg76rV165EXYH32Q2uAmlhCCUs26LGWjoNqvCmhT12JiRC8qK7D5G4+7lrk6W4P6y5FHpRtpXpin2lHgpE0ey8F3U2YmFjB3pVLN1/Tfgy0HEGjdnNSuuDULL6DCCSLEwm45Rnpbkg1zuaVrknbhSgIObBk3R9j5db/iI0bN6ouPld4Fqk1bpvw8g8dOmRLT6AmQ5l5VME3uvzt86Oa9tN2x76peYTSI2eBYioqKrCOLKVmEqm1ZAHdu2WLQ5zYKrIgK+cQeQhdzUZXFnfV+bblecYZ9PjOUfY3skN18/XaB2OTJkswLt18BlSBBsgHI0+LG3uuLAPdIatLrqysGdibfpKE6t6zT3YgUrv5DPj4fSCLkkUvaWxMHcc+pkSLsigpX8j2XNF9wBAwr3RFP3ooyfEMBCFP+Ccnq1atwvLly1X7IAj5UMY/ktKfPTlw4EDayKc8nTwSiSAajSqriQspN4pC/vCMRvu4VMHg2ZNH96Sdpj/fcETdjo4OvbZ44V/E+4lYWwpkagsEIR1Z13lymz0xf+Gb6Rf/wnwib5LIRLHnk4i6gmCwoG+SEBYCo4++oB4UjwH4nZkoCIJwnRCBEgRBEIoSEShBEAShKBGBEgRBEIoSEShBEAShKBGBEgRBEIoSEShBEAShKBGBEgRBEIqSgrxJQhByQd4kUXpIWyDkg7xJQigZ5E0STkrhfjN9ZxPT0/EXT52Kj09NxWOxmE4VBAN5k4QgCNcFDlb687NnMRmP42fhMC6PjKj3dKag3spvjwiQAc/8RqTtGzfGWT/2mS+MLhAq7l6m6AwLSEEE6lokgpdOnwZZTykRdgVBWPywOP2CxIlfFH1fY6N6afTzZ87gfS+Rus6ohjhZ2fgFyrbGmV/UXOYQRkMQzUgCvCQfwgqsqhclHknHZfjYDmFRIpyUxvvZjpV6jGaEuvWLpJPyJsLsGMdNbNOhgzzSVbSGliPosF/HdSRvgfJtNRGJLy8L60lYGFQBN+NeCYJ/THGqqa7GPdu2oba8HPcHAqitq0P/4GBRihSH4EmO/6ZixLXs1qFzjACnnZ2pIXg6+3RcNxU+KNGWGYEVzcCqvPQh6BJSxw0OpUMns6J/W1hBXgdUyCFLOEhgDtL17dXv6AwPAt0D7tdlBURViz2WnHt6oG0vgu09RdFG5yVQ2VlNRvwh4yG2YTAb19zTxS8G3LsZnBaS4Yo7LLYUCyb5/pKtNUM8UiwvdWynsBiGgDPNsAYTS8oxOIS8DoTozOusgPZjFFNXgHD9ePH0aVRQG3A3iVOVTltKIrWH2oTJqiq8QIbr5OSk3pLgqFnOHOVI1xWX8uWenzhqeg9GmVfl1FbXktcVKfHfkmLEcWDUzj3Yv4ca+9QgcQZNe6iJD8EIUm1Eze7ss7+EuQn7XQIwpsL7Ai1tbTr6t052wIFXWxMBTM+EHTHmAm37E8LDceT0x9xowh4XYb4e5CxQWVtNJPEhBLFdPcTFFO3SKDjOQuxW2MkaS4nYm7Bg+qhANFuViMWpEe3BPm3d0NIXTI3A64pR2A1jzJnfiiA80A20d1gCFu7haMN7dQEPY5BsNTM0v/O6iE7bNfmqfNkxQuXm4sWLei11XSg87733nnrOJvy87euZ4EYkEo2mdO9zG1EeiWBieBgTExM61aQL2MPlqA+dVqRtLvdGt5Uqe8F2K7p0Ir/hSdijcXdhj8qvijVtYA8gUdeM+tDdltzYGPU2ZKiLrqNmHeDVLiPAaVLQUAe8T2sLVDXXEas9A1TTPaqAq3pptocF531JmnZT+7k96BJpW6EFUAddTRcNOzVAKtVhfV6nYeqVzrdtezbXkZwFKjuriQpeRzt69QN5uKcv4XVo72ifso7YWnd6Dvv6nfumWEI2lHexb5/lmSSy2qwyWswvw5mfra9EPvsX5vAcXM6f0l1gL7hqlQv7/rRWCUfYpRJBd0+YIeKdMa39hdzQhb2tjePce3QvKOuxFwljzB5tmIyH/Qnh4YK6kHznO9/Bk08+qddS14XC85d/+ZfqOZvw87avZ+Kj1LBOjY/jOarzU1qkLlHd/4eTJxG5cAF31NejnNoGJ50witwtSBSxMwhTI28ado46YeXnRpyTEyXbLLsBYwPlNzyAg1yHrcZfZXGgIm3rOmIJksIwMFX77xJp24oKfjCAAb9GmtVVZyx9dGsmSlCC29VxUiJtW8LWiPDehFHPdTZoWPtO+vcZ3YxmRo5kbp7Xbph6pRcZOQtUdlYTNXoHusntNDyG1IbWtI7245aeDrKP9JdJDy6QtG+mCLC9oQAOUL6BbvJqDppdAUZMJfVlUMnotfWvmvn7OjmU+lG6DOO8ZIoZeUhAO4606MJF1l7XwdQvUhVi09XXhd0KA2/0ZXPZ58beq7vA3v+tCmxrgKquO73tjQnBLGvmp2eh+rL5OIHtCPZ6dBdoATTqI3lMIS/Lz2m1Kbqa9XmdXYjCjcuy6mrsJEN1dHQUPyWROkv1vo/EaeTcOdy5Zg0aGhoW/HdgTW1Uh6mh7zfrg053wPVWdakl6qiCDUwyidsbDWFo76Vib6u3xhgUe362+sX1jfYxjT7/GHXMqlfsWtmPq4VNtWe2a3D1cNjYbwa1kx6x3ryuMedrn39yFqjcrCYvEoVDWUFkNajBQFL5FM88A2Yjr45jwxpXcfjWifzKU3C4xQZKLCwrhsXA7Yvk7gKzS82lsGuxSR2YTbjY2YR1t7rqTNHU6WZhNywrtiKd3QWWsDWGsdcqxGy1ml2vTvr3Gd2MCWPskHVew+iSMSiBGhGq52tWrsTHtm/HOInU86dO4drQEO5auxZbt27F+vXrUVNTo3Ong72pRJllo40Kc5K4cP3i5NQC68ivxKcdzeRNmBMJUtH1toO7uBN1XxmL9jpGhT21m4+M3gGSt0ZzjLYJbSwijskJ/diXaZzW7C0xz0ULG8vJ3Xxc9/rQbPXscPtmjUcxPMnJUa8Nwj37EoakEl6jbfJKN/H00BaYSv6Vezq8tptW03NnziiracfGjXgxFFJW04fzsZp0tFejW61XFZRDu/W2HOFjNYfYEiGvhq0M+iKzgsddMnhuqrugg1zz7WFjcFWnq0pDBlJjWbtOoTrUT4VIeSxcMOkzF66DtC9VJC4ShkiHSTq4CmWBKuy0a28ZFThNq3Fc9ZGfZRvU+NZRvgZ1S9woaO/PdjL1zKhKeN13zteYxJ/8yZ/oTwYhKkPBYNAqdxHyxp977rmUfF7Uk2H06KOP6jWDr371q/pTZsz97eU+l/3t/Nmf/Rl4ApEfCnX9JnwfmfZ/6aWX8Oqrr+Ls2bNq/5mZGfXczWdg338N1W03KioqsI72bSaR+uU772Drli3qWOvWrVPixIZRZnhsug9h8lpUdWHv4RCVP6qzhjGnSzXXR1ux5C43YwvXJ3ODMcaEYKrRaUfV2/Z2dO49pFOM7r2WAVupVj0k7VRnkrrzuJusz5j9qiYY8RRtPKyMWRP2tgLYp9dSMcaL9sI8O8PdfM3cHuzVCZqm/QMYpLpbFqb7pzqtRJPqJ9+famcI6xkRfO7926ntIU/QbH04TT0Pr3SGnreaIWg2YgXGTVPc0pjKdCLCO3ltt1tNfYODeJ7yRrTVtIUKp3+ryQkr+7Hd+9WX3Rcmz0Kn5422rFSBIIc26bv3RDXE7QfRQ66cauf7e9BzC3l2ya2ystg60HGwlwq7JU+qsJuz4xhu+BvJVd9PQmFBojwwSOn7thuC0NSG7tZGNO/bkxAIErGHB9vSXrdR2O2iwmNqB3Es3MblUWM0Amrmn7ouY2D2qE1p2NtMFacwevYdw249PqUqBJ3LniMXtpGRY+ccGTjcmHO54/LHM0Tr6upS8tnhxpTzMdVkOCWXWXNfez4veH/Gfgyvc7sdz+38GzZsUPeQCT7eSqpTXtdvku4+7Oc362+6Z8ewOK1atUrl4/157JiPbx7H/vxmZ2fVZzdMkfo3VO+j0aj6Hvk4KeKkxj/0Z1Ue7W9bM7rjHW2jym+vMCbGvm5buLxy7173gQwlNOXYfP7kfWzX2JT0ZjhlUOvPhOplSLkgypN0yKb9piBQfvXXBh9T53fu57zfvZ3UPva0UXMRUMcjW9cFw+BPQTsCbqhhgu4DeddtL5LLdzqdoYv0xnwFRbrXm1BBjF+8fDl++MSJ+GuvvRZ/++2349euXYvPzc3pHJqB7ngrOuPkyvJKnLzhOKl2UjrR18nfl16c+VWa2smdvk7EyUswV+JkgdGeaiXeqY/Z2tlpnc+ef6C7NXHspGtS26xrao2bp0jGyJd0L9Y1aMxjJ983wdeTyG+7Z7WkXrMB3xtfk+2Z2jDzp+ynzm/kd9y7Op79vM5zJ6cxvL/9Obp9dsOtXH3rW9+Kf+UrX1GfufzZ173I5lU9fih0vmJ/1dEf//Efq+dsws/bvm7Cx8v0qqOiwa3uLTqMupqujmWLagvm8bll+6qjvAWKYZFiURodHY1PTU2lipNQ5Jgip1cXCBEoJ9fr+halQAlFSbYClfMkCTvs2tfW1qpuDO4i8NffnBvG2JSe8GBf0kw/FzLRhP19QbQ3ysw8QRCKh4II1EJin0nmWBzjJULWqD7pxFjZ9eKLX/wiyILXa6nrQuEhD0o9ZxN+3vZ1QbhelJxACYsbnvm1ceNGvZa6LhQennHLz9mEn7d9XRCuFyJQgiAIQlEiAiUIgiAUJSJQgiAIQlFSxlP89GdPDhw4gMcee0yvCUJhePzxx9HR0aHXFi9pf4hYYkhbIORD1nU+ngZzfrr89kGYDzKVK7+/4yn2fMX+O6hs8klbIOTDdfkdlCAIgiAUGhEoQRAEoSgRgRIEoWBci0Tw0unTmJieTokVJwjZIgIlCEJB4GClPz97FpPxOH4WDuPyyAhisZjeaoPDy2SKk2RhRNjO6U1mWZ1nsaEjkxf0FXBGxPGFfKtcQQRKrCZBuLFhcfoFiROH17ivsVGF2nj+zBm87yVSijzEJyuyPI+bsHEcuTJbMEK1XmYFEFTwfvb3gyYfI3m7uiCXa0s+lxYGp9hoAbIdz745zJHJg2bInKS8tuuyArmaiz6IezqHIukDHEEZ55e8BWp+rCZh4TAKv6Oi5YuqiAtXiIXriylONdXVuGfbNtSWl+P+QAC1dXXoHxxMI1JGfKP5f41mludp2uMM504YsdYSwQ9VzKTOThVW3lFzdIj2eHwA3dCRwRmuE80hdA+Y7w+l7aHkKL0ecMRbOldnSlRfugQVfp6Wvk5bNN9+9LQD3VY48jMIs1i5XRfRao8ebHtI7ukcOTiEgwv0Vum8BCo3qykbFsrCyg31ZvXki0sSYsMScTbWydZJsjgkv7FdbXcReD6OY98crLr+fc0IqUi7AWt/x3mNXIYFZ1uM2/ZI5xfPKkOrSL84oaC8ePo0KqgNuJvEqUqnLSWR2kNtwmRVFV4gw5WDIKZiq9/aa9hn1g1XY1Z7ArpcOeqJVdZs3kKzGV022/M0YY8j7DoHP+xFpxUT3QiG2NLWhhY4hSyBEdHXDMtuhJE/YHsZM4umMzy7F7xv5579dE1dOOpVpVhUoSNjhwcRam3Bbutc5PlYAsMBSvXHHFFRiJOFeZ7IWaByt5oWD/xFqbDLep1RBbFlNxUDtYajXWT5uBQsyzoZ6AbaO6wwF1zpGtuD6DMtF2rpgz4LQ9ZWHVVWFdrZrDVnwgiaFlnSddFBbNaf3Rr1SOeowKGDEr7jBoAbkUg0mtK9z21EeSSCieFhTExM6NR0kKDs4XLURx5MO3ocdYZFphHhvbSdCxmV3Y4jLbpcU/4uo6xZXVucTl6FO+nOY8Bh101xoYpFMtQNyyFR6ywARjTqhJDZsYsatwMc1NtSjBQ4bL0lto3t6NXpZhvCh7kl0IouL4ViL8sUJarHvTqCeCo6pH1CvdDb3qjP7TSkvdIR2I5gb5j8svmnnH/l7rUw5t9kcreaCIdVn4hBlGwRqcJG35Tx5aXpMvK0imzWlD6mQnkjlF9vY0/B8mrsFpX9Ot0sLQ7z3moXn6QvX7nme7CfCrtnwVLH6IVRF3Sh7rNbVmT9HDLCrKcne6tOFWRbtwV7PglDiwqh/pgbfC7WStcLsUguc/Yl03ZzkXzuy3zkc+Oj1FBP0fbnqM5PaZG6RHX/H06eROTCBdxRX49yahsyYzTE1BSD2mIHXc2NONIyYJVP1eVG4tKo6mczuqhJD1N5dno6Xnifx4I9Em18KsPPMjr1ubUAKCGzG4TWNRlimjDk0mN11fFCxqF1WUp4AnSl3FSkGsSWsB0MYEC3E+HBEFoDvEcy3B5yj0nCk1Oh4vV5+8iQNns9vNILgVu5Sk4zl3J+BYvXwph/k8nLalKxh8yb70U7mzBsEXG/qbLGydKnBxhoO4Bu+qaMLy+TO+xmFRl9z+pc/KVrK0vRG0LgAKWTlcWWwlG1r+FhGPv2Y18ztCdjT7djNPgh5VcTSpD2Wl++4ZrTVd8SSClYFmyN9eoKoz63wrVsMVbhNxarB4PJ2qqjNc+CTNgtMgV9T4363I7C6pVOT2d7MCGGHiSXOfuSabu5SD73ZT7yubGsuho7yVAdHR3FT0mkzlK97yNxGjl3DneuWaPCeaTb3w+dfX0IOjx6otMcVzEWv2LgD+7mY+NTG35WRTDqECmDUea5EtrHq3RvxQA1XAmj1BBCq53IAm5DrHqvPCtnb4zRNnKbl7gGr3rXv88QedWd7wJ7aHSRCbHVeKXnilu5Sk4zl5y7+PKzmhJjF1Yjqyx2auw62FMhYbH8ab+4W0WWV+Zwmwmz8WXxsPa1wQ00/WtW19moPDm3Ambvj7UESWF4U6r9T/G0uMxp97kxjL0ZxVdjddUZi70HIxer7ky4173bgT1SHtA9YHpuPHvHPC93pzTrMSivdOFGguv5mpUr8bHt2zFOIvX8qVO4NjSEu9auxdatW7F+/XrU1NTo3LlCZU1FfTZ6UrgRht3g7O+hz8b4iikMbIDlA9ejroMd2vDTidqgTHTBG0Z2skHIgVX70KzHcak928uGsF1g2ZtJ0yukMNoQexe6U/hM6NkMtOCIfjaqTXMIitGTdDCQLE7UDlsV1hBeY3jCK12jxrgMr26+yVmgcreaTDfTGIPhB26gG7sDQAc3pq6Dl1nSv882nkMNqE72TZIguFoeLD6qSy3RV6xQAmd6F4bA2QuWMQZFnplduLRIZ3A6XMjFqjMso1TRpcLZSFVywCu6rpc1mLuVKJQ+FRUVWEdGaTOJ1Foqg/du2eIQJy6XedO0n8pwiIxGaojVZyS892Zyc1QWw1DitA4jKXfUbD6qV8nde/ZucSLFINQ07R9AyxEyRLmxVxOHWGD19VKbcKSlzXGcFFJ6Mbi5Se3mUwTacIgnJvGQCXiMyFb/lajajGJeVPtKdTak2wxuo9CNA6rSe6Ub9PMUQbtgzSfU8HpivsTP6wWR0Wg0fvHy5fjf/uIX8e+98kr8r599Nv7iiy/GBwcH49euXYvPzc3pnERfZ5wayvgA/aN2Mk6uKWF8Zj81PtAd7yRTQeGaNw20L3lBcSObbR/rOPozWuPqFPZ0r31Vuu3ctN5tfk6CGv54a2urcR8a8m7iJEJ6jbCdx7mtL95pXhfBxyJvUF8PQ9v5Wu3XrLGO47gHA2tb0n6Oc/M2+8NVx0lciwXlsz8HK49XukY9l5SDJZCXxTophfvN9J1xm8B1nwzX+NTUlLMNEBYM1Y7Y63bB4PbK2dZkw4K+LDY3q8lwd43BvQ6Eg9qDIu+BzAtDtckD6NzL3UvGGE/GSRJe8Ewy0n/VvXWUOwGzQFkk5nXS0tju6dGpbj6ytJK79+wzZdy6+QxM99yYBstdA4aVqM9b1gyoZ+FNzlZd0tiYOo7l9RmL6qKgfCHbc4A5yOqVrjB+i+F4BsKih9uE2tpa1NXVobq6WpUNYeFR4/fsBVlddYWAh2Z4YN7nkEQh0ELliqlsYjUtXpzeXAFJ9s5cEA/KSSncb6bvTBDSsaAelMnCWE2JiRXOJTFNXcge7rMPkufq+HFvvvD0fGVoLZidJQjCIqQgArUw2GeM2RevwXzBH8Zz9Zp6mhPqZwQL2A0gCMKipIQEShAEQbiRKOP+cf3Zk6eeegqPPfaYXhOEwvD444/jS1/6kl4TSgFpC4R8yLrOx9NgDl7JwKgwH8gkCSelcL/SFgj5cF0mSQiCIAhCoSljldKfU+CX9fHbINgtE7deKDSZypVZ/jJR7PkuXLiATZs26TVvSuF+X3jhBb0mCLnx4IMP6k8G6cqfCJRw3RCBclIK98sCtXr1ap0iCNkxPDyclUBJF58gCIJQlIhACYIgCEWJCJQgCIJQlIhACYIgCEVJQQQqMjWFU6+ewNS1aykRdgVBEDJRvSGIXbt2Yde2ep0iFCM8yWF2dlavzT9l/CMp/dmTAwcOeM62mp6cxNtvvo7Y0EXM1i7HTXfehZWrVqsXyM4vHPgwu7j/ucAReRvDexEv1En4RaoHAxg4lD6ERioLc78LCc/i6+jo0GuLF7+z5EoBr1l8LDA7Arb04TBOhIYwrVczYe1//iSOnx3RqUKx8dprr+H06dO48847ceutt6oXdmcDC9wDDzyg1zJTzhXHa2HMv26wOA3+6g1UjFzB9vo64GwYoX88hpErlxGLxXQuDYcRzyWmU7Hj676MkMv+QrNkk5exv+VdXweLIK0n3lBuHtPrjfDZnK+wJJc5+5Jpu7lIPvdlPvJ5MT0UwvGT540VFpksxEkoLSap3X/55Zdx5MgRDA0N6VT/uJWr5DRzybmLzxCn11E5egVb6kicpiexvXYJlobeQOinz+LqZReRumEJoO2QX88nm7wMv42cw9m3onvA9gbx1lagvSdJOG1vhO/rdIS0XyxemVBM1GMbd9s5liA2VJubt1npDu+Lqd6AoH2/4AZU245n9ARWY0PQvp58vm2U4sxnLtKTmD9XrlzBT3/6U/ST4TsyMj9eb84C9ZtXX0HFlUvYsmIZ4hNjiI1cRXz4Cm4qi2HmleM4+U8vKqU1IAu+ox296DIixWpznbvPLCveNOG19W8s9lhPduvfln7UzG/Pa3gM5nGMQ2svYp+RP73HkDhXY3uvTmOSr8HtvpxeiuHFmB6MOkgGkvJaz6MRjkvJSAv2dodwMPFQBOE6MYzwiePaw1qNwAZWBxKTD26mv+dx8vhxnAgPc0YNbdsRwGruJqRtar/VAdy8YRpnj5+kPYDNH9yGbdt2wOgVPI6zIyxCH8RmfbzjJ8J01s34IClR9YabrXzHeRst0otYOPiH6IcPH1Ze1fR0Yf3mvCZJzFy7htjoVcSGyVu6PITo1cuYmBjHdHklRsbH6fOEzklewYFusvE70ccWO5vr4R50HGnRFjx5AF0HDYFRsYQMq76vs5ecAKOl7t/XjK7OPr0tEQOqC3tS8oZ7OnCkZcDIy2HbD/ZQs29g5k/nMfC5Qt3G/gPdOiQ9wel0AzqdHZQzqfeV5KX0pngx2UBi1xwiz4iPNwDbpfjilra9CLqEfReE6079SpIP4vwoUrTC3EaitIM9HiVktFrNrtcIzmrx2UzJw+EThthUr8Qq5YSRKPE+LHC8WrOU/CeDzR8U76nUyFmgbr3zLkwur8PAmUFEL19ClLynsfEJhKZjGN0exPoP3I7ycu/Dh48dQW9vOxqVd0DiQ35I+AxvSXggzV0qK9GPo12t6G5LVZXOPUbaLQGz9Q7j2JFeEoZGw/Pgg/SGoQ5NmPm9Mc7Vsjt5CgOnk8A1G9emPKvQoGvj37/PyKPOnQ/9R9HV2oKUS/FNE/YE26F1WxBKCx7L0h6PWlzcHkO0bJhel7mEhjAyFHJ4aCxUQaufUcgXfo3XQw89hJ07d6qI6oUkZ4Gqrq1F4z3/ClPrNiF84SKJ0zh+E4lhhMRp8113o6GhQQ1ypcXyiIxlfxN3b7l7L9nSqT0dYylUdFce57Ed12UmHndbNof02A65WbnfQWFoautGyOZBCkJRMD1NXhBh83AsRkZVNx42NyTGqyx09x/lOG/09Rke0fQorvIByetSPYhJqEkcJFjOrkQhH9asWYNPfOITaGpqQn39/LilOQsUe0c8nfy2Bz6OyG0fwtuVNbh264ewdcc92Lp1K9avX4+amhqdO5UACRnMbj2mv8f6HNzOzb7hCRncgkBrogsvPQEYh040yv092TTQxrmOHDP2OBP2ugYSU6/rCW5XwqW8RCMlN24JoLX3CIxLOQPrUrIh0Ia9wS505XUhgpAe9Tsm3RXHomFMakjD9BDeZrHQ3XjOSRIjeqxpNQI7EhMbghsasG0XjzPxmNZZnD17AnwI9oi21U9jKJRYN/fh31XVb0usm1PZQ0MyxzBXask5YW+ppaUFGzZs0KnzQ15jUPxbp/o1a/GBf/sglt+3G7d+9F87xIm7uSwCu9HSaptM0LTfGMdpNLvDjnAmtO3t1N1oHQgHTf+DZ7bxOFWzkdcxISKVpv0D6IbZfVgGdWjfGONldGFq34Mhr2toRDtfQ9J9Bdr2Wnk6wsH8PCgSF+NS+HwHYV2KA+4SNbpI2xvdp7uzF3W9PTlhcWN6KPautWklNLwegtKDkbPGNt1Vl7KPbZshUs5toaH3nMejMwyFjG3Gbol1a6ENI2dT04TcuOmmm/DJT34St912m2rj5puChNvg6eSRSATRaBRLlizB0qVLF+TihdJGwm04KYX7lXAbQj5kG24j7zdJlCo8kcFtDkNr9wAOmVME5xH1hgq3eeM8LneD/ChJ3iRReohACfmQ7ZskJGChcN0QD8pJKdyvCJSQDxKwUBAEQVgUiEAJgiAIRYkIlCAIglCU+BqDevbZZ3WKIBSW5P5oO/MxhnI98i22MShByIesZvH5FSgZGBUKjduAqZ35aGCvR77FJFBHn3seV+puQ6xsvuO9CYuNingUa8ZO45GHnb/KTFf+pItPEATfTEciqIpN6TVB8A+XGy4/2SACJQiCbybJ2q2dHdVrguCfZVRuJsfH9Jo/RKAEQfDNQw89iMqZMVTNybvsBP9UxaZRMTOOVg6kmgW+3iQhP84T5oNsf1Veqvgd4ykVfvSjH2HN+o14f/l2zJVV6lRBcKc8HsW6iUEMv/8efud3fken+uO6TpLgNyCbbxeWFziWHiwwXD6qqqp0SnbIJAknpXS/3/nud7FmXQOuLtuKmXKJrSS4w57T6sl3ceXSRXzxi1/UqU7Slb+8uvjUK/bN19rzkukV+8Ki4p133sFPfvITnDp1SsXHEm4cvvgHf4DxkWGsGh/E6qlzqIlNKEsZkHJwYxNX5aA6Oq7KxWrynCZGhz3FKRP5e1D124w4MDl4QeJBlTavvfYaXn/9dfWZg5fdc889WcWHEQ/KSSne76VLl3D48GHULq9DTfVSVFbIsPaNTjQ2h6lIBGNXh/GpT30K69at01vcSVf+5kGg6nVQMTscYEzHcDHz2zH3rd6AoIqWqeHwzaEINujjnT/JcV+qsSG4A4au8Xry+c7j5PGzGCFfzsxnYuTXK0Le2AXKhBtiFio/ETZFoJwslvstdD55fu74zVfKz28ezR0WpeM4fpLjMq9GQMVhJjFR4sQikhx+WYdyZlHioGK83+oAbt4wraNrcqTMbdi2zS5OLEIsTsbxjp8I01k344Pb6knrbrbymYHKRJzmH64MbFG//PLLmJ6WmV6CIOTOwvrj9SsNT+f8KHk4SZjbdAho08taXc2jWiM4q8VnMyUPh08YYlO9EquUh0SixPuY3lfNUmsszAz/TJolCIIglBDF12HM3X3a4/EKz2yIlg3T6zKX0BBGhkIOD42FKrhBpnDMN9yV8NBDD2Hnzp2oTv6eBEEQsmBhBWp6mrwgwubhWIyMqm48bG5Aqo7o7j/Kcd7o6zM8oulRXOUDktelehCTmCaRYsFydiUK8wFPkvjEJz6BpqYmX+NPgiAImchLoNQ0c3PCA4lGxmnm00N4m8VCd+OpGXwWI3qsaTUCO/S0dVqCGxr0JAge0zqLs2dPgA/BHtG2+mkMhRLr1nR3Uq/6bYl1c6ZgSM3SEApJbW2t8pZaWlqymsEnCIKQCXmThJAzhfihrrxJQsiEPL/8KOXnJ+E2hOuGTDN3sljut9D55Pm54zefTDMXBEEQhAIjAiUIgiAUJSJQgiAIQlEiAiUIgiAUJSJQgiAIQlHiexafIMwHMosvwWK530Lnk+fnjt98pfz8fAnUjw/14krdbYiVVegtgpAfFfEo1oydxiMPe4eALsYKY8dvPmlg3fGbT56fO37zlfLz89XFNx2JoCo2pdcEIX+4PHG5EgRB8MLXmyT+/u9/gNU33YbhGv1aI0HIkzVT53DlnVP43Oc+p1MWL34tScEdeX75UcrPz1cXH0fN/KeX/xlXV2zHbLm8oVrIj6rYNFZNDOK+XTvTRtv0W7GKPZ90UbnjN588P3f85lv0XXzr16/HxNgoVl97V8WbF4Rc4fKzevJdXBsfyxgKWhCEGxvf08y/8IUv4Mr772EdWb5L5uSt4EL2sOfE5Wfo4jn83u/9nk4VBEFwJ6vfQX3xD/4A4yPDWDU+iNVT51ATm9AeVcZhLOGGJK7KR3V0XJWX1SROE6PD+Nzv/q7eLgiC4I2vMahkeEzq8OHDqF1eh5rqpaiskN/7Cu5EY3OYikQwOT6G1tZW1a1XjH3ddgqdT8ZQ3PGbT56fO37zlfTzY4Hygmf4+aHY850/f15/Ss9iud9C55Pn547ffPL83PGbT56fO37zlfLzE9dHEARBKEpEoARBEISiRARKEARBKEp8vUmi1PE7WCe4I88vP+T55Yc8v/wo6eenx6JcKcZBMzt+88kgqzt+88nzc8dvPnl+7vjNJ8/PHb/5ZJKEIAiCIBQYEShBEAShKBGBEgRBEIoSEShBEAShKBGBEgRBEIoSEShBEAShKBGBEgRBEIoQ4P8DcRtl9X4+1e0AAAAASUVORK5CYII=;" vertex="1" parent="1">
          <mxGeometry x="186" y="454" width="424" height="193" as="geometry" />
        </mxCell>
      </root>
    </mxGraphModel>
  </diagram>
</mxfile>
